<?xml version="1.0" encoding="UTF-8" standalone="no"?>
<!-- Created with Inkscape (http://www.inkscape.org/) -->

<svg
   width="88.727272mm"
   height="64.564194mm"
   viewBox="0 0 88.727272 64.564194"
   version="1.1"
   id="svg5"
   xml:space="preserve"
   inkscape:version="1.3 (0e150ed6c4, 2023-07-21)"
   sodipodi:docname="_ICONsQueFiz.svg"
   xmlns:inkscape="http://www.inkscape.org/namespaces/inkscape"
   xmlns:sodipodi="http://sodipodi.sourceforge.net/DTD/sodipodi-0.dtd"
   xmlns="http://www.w3.org/2000/svg"
   xmlns:svg="http://www.w3.org/2000/svg"><sodipodi:namedview
     id="namedview7"
     pagecolor="#ffffff"
     bordercolor="#999999"
     borderopacity="1"
     inkscape:showpageshadow="0"
     inkscape:pageopacity="0"
     inkscape:pagecheckerboard="0"
     inkscape:deskcolor="#d1d1d1"
     inkscape:document-units="mm"
     showgrid="false"
     showguides="true"
     inkscape:zoom="0.11313708"
     inkscape:cx="-3305.7244"
     inkscape:cy="-844.10877"
     inkscape:window-width="1920"
     inkscape:window-height="991"
     inkscape:window-x="-9"
     inkscape:window-y="-9"
     inkscape:window-maximized="1"
     inkscape:current-layer="layer1"><sodipodi:guide
       position="1520.8506,19.721199"
       orientation="0,-1"
       id="guide7"
       inkscape:locked="false" /><sodipodi:guide
       position="1520.8506,-26.292171"
       orientation="0,-1"
       id="guide8"
       inkscape:locked="false" /><sodipodi:guide
       position="2366.7941,13.783829"
       orientation="0,-1"
       id="guide30"
       inkscape:locked="false" /><sodipodi:guide
       position="3942.2678,-18.114791"
       orientation="0,-1"
       id="guide1"
       inkscape:locked="false" /><sodipodi:guide
       position="3377.7701,28.755969"
       orientation="0,-1"
       id="guide67"
       inkscape:locked="false" /><sodipodi:guide
       position="1415.2233,99.649489"
       orientation="0,-1"
       id="guide6"
       inkscape:locked="false" /><sodipodi:guide
       position="1415.2233,145.66287"
       orientation="0,-1"
       id="guide9"
       inkscape:locked="false" /><sodipodi:guide
       position="1052.9347,254.44554"
       orientation="0,-1"
       id="guide10"
       inkscape:locked="false" /><sodipodi:guide
       position="1759.8402,300.4589"
       orientation="0,-1"
       id="guide11"
       inkscape:locked="false" /><sodipodi:guide
       position="1423.0195,365.88542"
       orientation="0,-1"
       id="guide713"
       inkscape:locked="false" /></sodipodi:namedview><defs
     id="defs2"><style
       type="text/css"
       id="style1-2">&#10;   <![CDATA[
    .fil0 {fill:none}
    .fil2 {fill:black;fill-rule:nonzero}
    .fil3 {fill:#ACD4F7;fill-rule:nonzero}
    .fil4 {fill:#DEDEDE;fill-rule:nonzero}
    .fil1 {fill:white;fill-rule:nonzero}
   ]]>&#10;  </style></defs><g
     inkscape:label="Layer 1"
     inkscape:groupmode="layer"
     id="layer1"
     transform="translate(1379.9014,274.32946)"><g
       id="g743"
       inkscape:export-filename="img-readme-ico.svg"
       inkscape:export-xdpi="96"
       inkscape:export-ydpi="96"><rect
         style="fill:#f9f9f9;fill-rule:evenodd;stroke:none;stroke-width:0.899999;stroke-linecap:round"
         id="rect1-31"
         width="68.624146"
         height="28.946917"
         x="-1369.4338"
         y="-259.15985" /><path
         fill="currentColor"
         d="m -1298.5186,-274.32946 h -21.5214 a 15.860977,15.860977 0 0 0 -15.4728,12.36711 15.860977,15.860977 0 0 0 -15.4764,-12.36334 h -21.514 a 7.3943951,7.3943951 0 0 0 -7.3982,7.3943 v 37.87407 a 7.3943951,7.3943951 0 0 0 7.3945,7.39444 h 13.8201 c 15.7389,0 20.4455,3.78966 22.6935,11.58696 a 0.40669178,0.40669178 0 0 0 0.4136,0.31022 h 0.084 a 0.40669178,0.40669178 0 0 0 0.4136,-0.31022 c 2.2628,-7.7973 6.9693,-11.58332 22.6935,-11.58332 h 13.8164 a 7.3943951,7.3943951 0 0 0 7.398,-7.39431 v -37.87784 a 7.3943951,7.3943951 0 0 0 -7.3536,-7.3943 z m -44.1002,40.87617 a 0.53239645,0.53239645 0 0 1 -0.5324,0.53239 h -24.7046 a 0.53239645,0.53239645 0 0 1 -0.5324,-0.53239 v -3.52332 a 0.53239645,0.53239645 0 0 1 0.5324,-0.5324 h 24.7084 a 0.53239645,0.53239645 0 0 1 0.5324,0.5324 z m 0,-9.37968 a 0.53239645,0.53239645 0 0 1 -0.5324,0.53239 h -24.7046 a 0.53239645,0.53239645 0 0 1 -0.5324,-0.53239 v -3.51983 a 0.53239645,0.53239645 0 0 1 0.5324,-0.53239 h 24.7084 a 0.53239645,0.53239645 0 0 1 0.5324,0.53239 z m 0,-9.37982 a 0.53239645,0.53239645 0 0 1 -0.5324,0.53239 h -24.7046 a 0.53239645,0.53239645 0 0 1 -0.5324,-0.53239 v -3.51605 a 0.53239645,0.53239645 0 0 1 0.5324,-0.5324 h 24.7084 a 0.53239645,0.53239645 0 0 1 0.5324,0.5324 z m 39.9445,18.74482 a 0.53239645,0.53239645 0 0 1 -0.5324,0.5324 h -24.7046 a 0.53239645,0.53239645 0 0 1 -0.5323,-0.5324 v -3.52345 a 0.53239645,0.53239645 0 0 1 0.5323,-0.5324 h 24.7046 a 0.53239645,0.53239645 0 0 1 0.5324,0.5324 z m 0,-9.37981 a 0.53239645,0.53239645 0 0 1 -0.5324,0.53239 h -24.7046 a 0.53239645,0.53239645 0 0 1 -0.5323,-0.53239 v -3.51983 a 0.53239645,0.53239645 0 0 1 0.5323,-0.5324 h 24.7046 a 0.53239645,0.53239645 0 0 1 0.5324,0.5324 z m 0,-9.37982 a 0.53239645,0.53239645 0 0 1 -0.5324,0.53239 h -24.7046 a 0.53239645,0.53239645 0 0 1 -0.5323,-0.53239 v -3.50124 a 0.53239645,0.53239645 0 0 1 0.5323,-0.5324 h 24.7046 a 0.53239645,0.53239645 0 0 1 0.5324,0.5324 v 3.51968 z"
         id="path1-03"
         style="fill:#ff5555;fill-opacity:1;stroke-width:0.264583" /></g></g><style
     type="text/css"
     id="style1">&#10;	.st0{fill:#76C2AF;}&#10;	.st1{opacity:0.2;}&#10;	.st2{fill:#231F20;}&#10;	.st3{fill:#FFFFFF;}&#10;</style><style
     type="text/css"
     id="style1-1">&#10;	.st0{fill:#C75C5C;}&#10;	.st1{opacity:0.2;}&#10;	.st2{fill:#231F20;}&#10;	.st3{fill:#E0995E;}&#10;	.st4{fill:#F5CF87;}&#10;	.st5{fill:#4F5D73;}&#10;</style><style
     type="text/css"
     id="style1-9">	.st0{clip-path:url(#SVGID_2_);fill:#E30613;}	.st1{clip-path:url(#SVGID_2_);}</style></svg>
